<?xml version="1.0" encoding="utf-8"?>
<!-- Generator: Adobe Illustrator 16.2.1, SVG Export Plug-In . SVG Version: 6.00 Build 0)  -->
<!DOCTYPE svg PUBLIC "-//W3C//DTD SVG 1.1//EN" "http://www.w3.org/Graphics/SVG/1.1/DTD/svg11.dtd">
<svg version="1.1" id="Layer_1" xmlns="http://www.w3.org/2000/svg" xmlns:xlink="http://www.w3.org/1999/xlink" x="0px" y="0px"
	 width="512px" height="512px" viewBox="0 0 512 512" enable-background="new 0 0 512 512" xml:space="preserve">
<path id="smiley-shocked-icon" fill="#8CC63F" d="M316,313.083H196v38h120V313.083z M256,90c91.741,0,166,74.243,166,166
	c0,91.742-74.243,166-166,166c-91.74,0-166-74.243-166-166C90,164.259,164.244,90,256,90 M256,50C142.229,50,50,142.229,50,256
	c0,113.771,92.229,206,206,206c113.771,0,206-92.229,206-206C462,142.229,369.771,50,256,50z M319.583,194.083
	c12.683,0,23,10.317,23,23s-10.317,23-23,23s-23-10.317-23-23S306.9,194.083,319.583,194.083 M319.583,164.083
	c-29.271,0-53,23.729-53,53s23.729,53,53,53s53-23.729,53-53S348.854,164.083,319.583,164.083z M191.583,194.083
	c12.683,0,23,10.317,23,23s-10.317,23-23,23s-23-10.317-23-23S178.9,194.083,191.583,194.083 M191.583,164.083
	c-29.271,0-53,23.729-53,53s23.729,53,53,53s53-23.729,53-53S220.854,164.083,191.583,164.083z"/>
</svg>
